<?xml version="1.0" standalone="no"?>
<!DOCTYPE svg PUBLIC "-//W3C//DTD SVG 20010904//EN"
 "http://www.w3.org/TR/2001/REC-SVG-20010904/DTD/svg10.dtd">
<svg version="1.0" xmlns="http://www.w3.org/2000/svg"
 width="1040.000000pt" height="1041.000000pt" viewBox="0 0 1040.000000 1041.000000"
 preserveAspectRatio="xMidYMid meet">

<g transform="translate(0.000000,1041.000000) scale(0.100000,-0.100000)"
fill="#000000" stroke="none">
<path d="M3318 8386 c-22 -16 -23 -39 -3 -56 12 -10 18 -10 30 0 9 7 18 10 21
7 10 -9 -6 -28 -33 -38 -31 -12 -51 2 -55 39 -4 38 -32 35 -36 -4 -4 -45 30
-84 75 -84 70 0 129 62 104 109 -21 39 -71 52 -103 27z"/>
<path d="M1498 8129 c-13 -7 -16 -21 -14 -65 4 -65 21 -87 67 -87 40 0 79 41
79 84 0 60 -78 100 -132 68z m66 -68 c3 -5 -1 -15 -10 -22 -13 -10 -17 -10
-24 1 -5 8 -6 18 -4 22 7 11 31 10 38 -1z"/>
<path d="M3586 8094 c-22 -21 -20 -33 7 -44 17 -7 18 -9 5 -9 -24 -1 -23 -28
1 -41 50 -26 91 -3 91 53 0 49 -69 76 -104 41z m54 -55 c0 -5 -4 -9 -10 -9 -5
0 -10 7 -10 16 0 8 5 12 10 9 6 -3 10 -10 10 -16z"/>
<path d="M5003 7810 c-14 -6 -23 -18 -23 -31 0 -19 4 -21 35 -15 20 4 41 3 48
-1 8 -5 1 -9 -18 -13 -25 -4 -31 -10 -33 -38 -4 -40 -16 -41 -32 -2 -13 32
-30 31 -30 -1 0 -31 53 -79 88 -79 41 0 80 34 88 76 9 48 -9 82 -51 100 -39
16 -42 16 -72 4z"/>
<path d="M7354 7711 c-42 -25 -91 -87 -110 -138 -9 -24 -20 -43 -24 -43 -4 0
-42 16 -86 36 -312 145 -749 67 -1053 -186 -81 -68 -188 -199 -234 -288 -100
-190 -86 -389 32 -468 21 -13 55 -26 75 -28 33 -3 39 -8 63 -56 81 -163 388
-220 644 -120 40 16 48 17 61 4 12 -13 20 -13 57 1 71 25 140 20 192 -14 24
-15 56 -42 72 -60 23 -26 31 -30 47 -21 11 6 20 15 20 21 0 18 -44 70 -84 100
-39 28 -39 29 -13 29 56 0 167 51 323 149 48 30 54 32 92 22 58 -16 133 -70
154 -113 22 -43 26 -111 14 -283 -8 -115 -7 -121 13 -142 29 -30 63 -38 97
-21 36 17 60 60 86 150 26 94 65 166 100 184 15 8 45 14 66 14 114 0 178 -148
118 -276 -33 -70 -128 -133 -203 -134 -38 0 -44 -15 -10 -24 55 -15 120 -6
172 23 51 29 51 29 76 10 13 -10 18 -19 12 -19 -28 0 -10 -22 35 -43 39 -18
66 -22 152 -22 96 0 110 3 164 29 119 58 228 204 256 343 15 69 9 206 -10 228
-17 21 -58 12 -117 -25 -86 -55 -172 -46 -213 22 -19 31 -20 48 -19 298 2 307
-6 354 -87 519 -115 234 -349 372 -609 359 -140 -8 -243 -63 -336 -180 -21
-28 -39 -45 -39 -39 0 28 43 120 66 142 37 34 46 55 31 68 -10 7 -21 5 -43 -8z
m-1433 -887 c11 -24 31 -54 45 -66 18 -18 24 -33 24 -70 0 -27 -4 -48 -9 -48
-4 0 -29 18 -54 40 -78 69 -95 160 -56 290 l14 45 7 -74 c4 -41 17 -94 29
-117z m206 -209 c37 -70 101 -120 199 -155 l59 -21 -61 5 c-176 15 -290 121
-269 249 4 22 14 56 23 76 l16 36 6 -75 c4 -47 14 -90 27 -115z m751 -103 c2
-7 -7 -12 -23 -12 -24 0 -26 2 -15 15 14 17 31 16 38 -3z"/>
<path d="M3105 7664 c-391 -59 -730 -226 -1014 -498 -204 -196 -410 -510 -514
-786 -142 -374 -173 -782 -91 -1190 122 -609 507 -1097 1089 -1380 268 -131
515 -195 835 -216 100 -6 107 -8 141 -39 133 -119 287 -155 744 -175 321 -13
410 -23 529 -59 53 -15 99 -30 101 -32 2 -3 -14 -40 -36 -83 -21 -43 -39 -89
-39 -102 0 -13 -5 -24 -10 -24 -19 0 -23 29 -11 73 24 85 32 120 27 124 -11
11 -66 -40 -85 -80 -29 -59 -28 -118 3 -154 22 -26 30 -28 93 -27 113 1 224
63 365 206 74 75 186 236 219 316 12 29 25 52 30 52 4 0 95 -32 201 -71 392
-144 525 -183 812 -239 182 -35 350 -44 404 -21 64 27 47 32 -175 51 -232 19
-495 84 -818 200 -417 151 -432 155 -458 141 -14 -7 -38 -42 -58 -82 -23 -49
-37 -68 -47 -64 -8 3 -76 21 -151 40 -210 53 -242 66 -264 106 -28 51 -65 86
-116 111 -40 20 -62 23 -166 23 -66 0 -167 -4 -225 -8 l-105 -8 110 55 c392
197 735 624 900 1119 81 243 112 470 101 732 -14 346 -83 630 -221 910 -186
378 -466 665 -835 854 -226 116 -456 189 -707 225 -137 20 -430 20 -558 0z
m403 -61 c-141 -275 -237 -662 -269 -1079 l-12 -156 -71 6 c-208 20 -494 83
-681 151 -137 49 -133 46 -111 92 34 73 164 259 258 368 204 238 403 392 713
548 139 71 182 88 173 70z m273 -33 c653 -132 1158 -529 1403 -1103 73 -172
133 -387 152 -547 l6 -55 -109 -110 c-90 -91 -263 -230 -303 -243 -6 -2 -10
52 -10 145 -1 286 -50 530 -160 789 l-48 114 77 40 c81 42 190 139 141 125
-14 -4 -77 -30 -140 -57 -63 -27 -116 -45 -118 -40 -10 31 -117 198 -186 290
-217 289 -577 563 -825 627 -105 27 -102 12 9 -44 316 -161 569 -364 759 -611
92 -120 112 -160 119 -236 4 -53 2 -64 -16 -82 -57 -57 -523 -164 -832 -192
-135 -12 -400 -13 -400 -2 0 4 7 64 15 132 37 296 91 558 175 840 32 107 61
208 64 224 l7 28 62 -6 c34 -4 105 -16 158 -26z m-611 -48 c-179 -90 -352
-223 -520 -398 -87 -91 -123 -136 -290 -361 -99 -134 -143 -135 -348 -9 l-93
58 38 46 c228 284 534 508 822 601 135 44 393 104 476 110 6 1 -33 -21 -85
-47z m-1214 -835 c44 -29 123 -75 177 -102 53 -28 97 -55 97 -61 0 -6 -16 -46
-36 -89 -50 -109 -108 -289 -138 -432 -30 -142 -50 -369 -41 -464 8 -76 -6
-99 -57 -99 -45 0 -190 104 -324 234 l-116 111 12 90 c29 218 88 401 205 635
44 87 130 230 138 230 2 0 40 -24 83 -53z m468 -227 c212 -80 474 -140 696
-157 l95 -8 6 -370 c6 -322 19 -551 45 -759 l6 -49 -163 6 c-178 6 -347 26
-504 58 -107 22 -354 101 -446 142 l-56 25 -6 68 c-20 205 -2 448 47 642 42
164 146 442 166 442 3 0 55 -18 114 -40z m2246 -17 c43 -44 52 -60 89 -176 51
-161 78 -299 92 -480 14 -163 6 -209 -53 -307 -27 -46 -43 -60 -93 -84 -296
-143 -785 -252 -1221 -272 l-151 -7 -12 119 c-28 284 -37 542 -33 895 l2 156
198 6 c301 9 613 61 1032 172 47 12 89 23 94 24 5 0 30 -20 56 -46z m687 -898
c-7 -241 -35 -394 -108 -605 l-29 -85 -148 -145 c-88 -87 -183 -169 -237 -206
-94 -64 -154 -98 -161 -92 -2 2 14 44 35 94 52 119 107 292 141 443 25 105 38
193 66 427 5 39 8 43 117 114 76 50 144 106 212 174 89 90 101 99 108 81 5
-11 7 -101 4 -200z m-3597 -70 c44 -33 124 -85 177 -115 l96 -55 24 -120 c48
-239 167 -537 292 -733 52 -81 63 -118 36 -129 -54 -20 -633 347 -677 429 -35
65 -97 235 -122 333 -43 168 -58 272 -63 450 l-6 169 81 -85 c44 -46 117 -112
162 -144z m3064 -295 c-33 -227 -107 -494 -184 -664 -46 -103 -141 -194 -246
-234 -112 -43 -280 -87 -437 -116 -161 -30 -404 -53 -416 -40 -25 27 -120 436
-165 714 -14 85 -28 167 -30 181 l-5 25 197 12 c263 16 503 52 735 111 189 48
477 134 507 151 10 6 22 2 37 -13 l23 -22 -16 -105z m-2514 24 c245 -83 477
-126 786 -145 98 -6 180 -12 181 -13 1 -1 18 -94 37 -207 43 -251 128 -625
163 -717 12 -31 -442 3 -656 49 -193 42 -212 51 -273 127 -179 220 -321 509
-394 799 -40 157 -42 179 -16 167 9 -4 87 -31 172 -60z m-447 -652 c134 -114
355 -241 563 -322 108 -42 110 -44 226 -156 64 -62 154 -141 200 -175 79 -59
184 -116 194 -106 15 15 -33 69 -135 151 -133 108 -244 210 -220 203 143 -44
415 -82 651 -92 l157 -7 32 -97 c26 -78 78 -214 106 -278 8 -19 -215 -17 -360
2 -384 50 -747 202 -1052 440 -145 113 -336 325 -431 480 -18 30 -18 30 1 14
11 -8 42 -34 68 -57z m3177 -43 c-174 -280 -447 -539 -742 -703 l-66 -37 -141
2 c-162 2 -175 -3 -169 -63 l4 -38 -67 0 c-36 0 -94 -3 -128 -6 l-61 -7 0 29
c0 17 -22 95 -48 174 -27 80 -52 157 -55 171 l-7 26 108 6 c155 9 305 33 490
78 217 53 304 71 311 64 9 -10 -29 -70 -135 -212 -57 -76 -104 -141 -104 -145
0 -16 35 -7 71 18 63 43 203 231 285 382 26 48 38 58 105 92 96 49 235 142
324 218 42 35 71 54 73 46 2 -7 -20 -50 -48 -95z m-240 -812 c30 -16 51 -36
64 -64 12 -22 27 -47 35 -56 16 -20 192 -78 306 -102 44 -9 86 -18 93 -21 17
-5 -25 -67 -105 -153 l-59 -65 -35 26 c-75 57 -230 116 -373 143 -44 9 -195
22 -336 30 -484 28 -585 44 -711 112 -37 20 -66 40 -64 43 2 4 42 10 87 13 46
3 118 13 160 22 l77 16 40 -25 c57 -36 121 -50 207 -43 74 5 151 33 146 52 -1
6 -53 10 -130 10 -107 0 -133 3 -167 20 -22 11 -42 29 -44 39 -3 18 3 19 135
14 77 -3 186 -2 244 2 58 3 168 7 246 8 130 2 144 0 184 -21z"/>
<path d="M1799 6122 c-121 -121 -158 -167 -145 -180 3 -3 45 32 94 78 48 46
115 111 150 144 60 58 71 79 41 83 -8 1 -71 -55 -140 -125z"/>
<path d="M4118 5907 c-29 -34 -79 -91 -111 -127 -77 -84 -209 -256 -231 -298
-10 -18 -16 -41 -14 -50 2 -12 23 9 65 63 61 80 110 137 281 326 90 100 107
131 78 142 -10 4 -34 -16 -68 -56z"/>
<path d="M4331 5811 c-12 -16 -75 -94 -141 -172 -66 -79 -120 -152 -120 -162
0 -29 14 -18 92 74 40 48 103 122 141 164 63 74 79 106 58 120 -5 3 -19 -8
-30 -24z"/>
<path d="M1103 6656 c-30 -14 -29 -50 1 -81 30 -30 63 -23 85 17 13 23 13 29
-2 52 -19 28 -45 32 -84 12z m47 -42 c0 -8 -4 -12 -10 -9 -5 3 -10 13 -10 21
0 8 5 12 10 9 6 -3 10 -13 10 -21z"/>
<path d="M5850 6251 c-113 -37 -155 -97 -170 -246 -32 -312 124 -745 315 -872
45 -29 57 -43 65 -77 6 -23 15 -54 20 -70 20 -61 17 -64 -52 -50 -82 17 -121
17 -163 0 -43 -18 -56 -57 -32 -99 10 -16 17 -35 17 -42 0 -16 42 -33 188 -75
106 -31 202 -78 202 -99 0 -19 -21 -22 -73 -12 -28 6 -92 18 -140 27 -108 21
-183 62 -212 117 -26 47 -35 47 -35 -2 0 -90 68 -128 364 -206 91 -24 113 -36
102 -53 -20 -33 -199 -22 -314 18 -81 29 -107 27 -122 -10 -39 -95 33 -195
225 -310 39 -23 81 -52 93 -64 48 -43 88 -145 103 -256 12 -96 18 -117 30 -99
21 34 6 209 -26 291 -7 17 -4 17 35 3 105 -37 65 1 -124 119 -83 52 -176 117
-207 145 -57 51 -98 116 -82 131 4 5 40 -2 78 -15 39 -12 106 -27 151 -33 44
-6 93 -16 109 -22 24 -9 26 -13 14 -24 -26 -24 -74 -34 -146 -29 -40 3 -80 3
-89 -1 -17 -6 -17 -8 0 -24 13 -14 37 -17 120 -19 57 0 113 -6 124 -12 44 -24
86 -11 109 33 20 39 28 200 16 305 l-10 73 34 -5 c18 -3 33 -4 33 -1 0 3 -18
31 -40 62 -39 57 -70 158 -70 233 0 33 25 89 40 89 5 0 17 -26 25 -57 33 -120
88 -271 136 -372 58 -124 60 -144 23 -321 -26 -124 -28 -200 -6 -222 17 -17
42 10 42 45 0 16 14 98 31 181 21 101 29 166 26 196 -3 25 -31 97 -61 160 -50
104 -104 251 -135 368 -21 78 -72 103 -124 62 -32 -25 -34 -25 -41 6 -5 20 0
33 25 62 74 84 121 239 121 402 1 143 -40 286 -120 425 -44 74 -163 194 -222
223 -49 23 -160 36 -200 23z m82 -152 c54 -27 142 -121 188 -198 123 -210 118
-511 -10 -660 -28 -33 -30 -33 -62 -20 -50 20 -125 96 -164 165 -79 141 -134
360 -136 535 -1 111 12 160 50 190 31 24 71 20 134 -12z m218 -1037 c11 -41
30 -139 30 -153 0 -13 -28 -11 -36 2 -4 6 -14 51 -24 100 -16 85 -16 89 1 89
13 0 21 -12 29 -38z m-90 -188 c92 -26 160 -74 160 -113 0 -14 -56 -4 -201 35
-70 19 -134 34 -143 34 -33 0 -9 54 29 63 27 7 88 -1 155 -19z"/>
<path d="M5890 5917 c-1 -21 164 -328 181 -337 28 -16 24 3 -15 69 -18 31 -54
95 -80 143 -46 84 -85 142 -86 125z"/>
<path d="M5855 5700 c36 -119 129 -293 159 -298 19 -4 19 -3 3 19 -40 56 -101
167 -124 223 -26 63 -52 102 -38 56z"/>
<path d="M6707 6203 c-8 -16 -24 -68 -35 -117 -12 -48 -23 -91 -26 -93 -3 -3
-10 7 -16 22 -8 20 -8 44 0 82 13 60 9 83 -14 83 -29 0 -49 -47 -50 -118 -1
-74 19 -120 56 -130 10 -2 17 -10 14 -17 -2 -7 -10 -58 -17 -112 -29 -244 27
-336 166 -269 61 30 145 106 145 132 0 11 -16 4 -62 -29 -110 -78 -161 -95
-188 -62 -19 22 -7 228 20 360 25 121 39 160 40 108 1 -85 99 -116 182 -57 69
48 127 194 84 210 -23 9 -40 -11 -54 -62 -22 -76 -92 -135 -134 -113 -15 8
-18 24 -18 99 0 78 -2 91 -19 100 -34 18 -60 12 -74 -17z"/>
<path d="M632 6098 c-7 -7 -12 -17 -12 -23 0 -16 37 -35 55 -29 10 4 15 0 15
-10 0 -20 -4 -20 -40 -1 -25 13 -29 13 -34 -1 -9 -25 49 -77 76 -69 54 16 78
94 40 128 -22 20 -83 22 -100 5z"/>
<path d="M7991 5713 c-54 -244 -210 -435 -409 -502 -117 -40 -287 -23 -421 41
-52 25 -90 56 -179 146 -80 82 -116 112 -124 104 -43 -43 123 -227 274 -303
122 -61 306 -86 428 -58 63 14 158 62 205 102 27 23 54 36 84 40 62 8 119 51
154 117 l29 55 -7 145 c-4 80 -10 151 -14 158 -5 8 -13 -10 -20 -45z"/>
<path d="M8342 5593 c-7 -2 -47 -48 -89 -101 -90 -115 -264 -289 -360 -361
-83 -62 -180 -113 -254 -135 -75 -21 -89 -38 -60 -74 42 -53 136 -182 166
-229 38 -59 55 -66 55 -21 0 38 -26 99 -68 160 -16 24 -32 48 -35 55 -5 7 24
30 80 63 119 70 198 137 357 301 152 157 258 293 254 323 -3 21 -22 29 -46 19z"/>
<path d="M8440 5576 c0 -34 24 -68 135 -191 455 -504 768 -1089 976 -1819 67
-236 132 -613 163 -951 18 -181 41 -315 57 -315 14 0 11 186 -6 365 -46 476
-124 856 -256 1242 -211 616 -510 1136 -880 1527 -88 93 -161 156 -181 156 -4
0 -8 -6 -8 -14z"/>
<path d="M7093 5521 c-66 -33 -69 -58 -16 -107 41 -38 96 -47 107 -18 9 24 7
100 -4 128 -11 31 -20 31 -87 -3z"/>
<path d="M8408 5190 c-9 -6 -22 -26 -28 -46 -10 -30 -10 -38 1 -45 24 -15 53
-9 76 14 l21 23 -20 32 c-22 35 -25 36 -50 22z"/>
<path d="M8110 4778 c-148 -56 -228 -150 -459 -538 -170 -286 -296 -440 -497
-607 -176 -145 -177 -147 -170 -171 5 -16 22 -26 59 -36 76 -21 199 -38 209
-28 15 15 -23 52 -70 65 -58 17 -63 36 -20 75 178 159 223 202 283 272 93 109
157 201 278 405 140 236 190 309 269 391 96 100 160 128 272 122 108 -6 175
-39 273 -131 90 -85 147 -176 204 -324 23 -62 45 -111 47 -108 5 4 12 38 28
135 13 77 -70 244 -168 337 -67 63 -127 98 -231 134 -105 36 -223 39 -307 7z"/>
<path d="M1049 4581 c-21 -17 -22 -22 -11 -40 6 -11 12 -31 12 -44 0 -32 30
-57 68 -57 39 0 62 31 62 81 0 67 -79 103 -131 60z m75 -60 c3 -4 0 -16 -7
-25 -12 -16 -14 -16 -26 -2 -7 8 -10 20 -6 26 8 12 32 13 39 1z"/>
<path d="M8333 4418 c8 -58 26 -140 31 -146 3 -2 17 0 33 6 36 12 35 38 -3
122 -20 43 -34 60 -47 60 -17 0 -19 -5 -14 -42z"/>
<path d="M7458 4430 c-10 -6 -96 -102 -192 -213 -239 -278 -285 -320 -453
-414 -35 -19 -68 -43 -74 -54 -8 -17 -6 -19 18 -19 38 1 98 29 201 96 106 69
183 143 361 343 212 238 206 231 194 250 -13 20 -33 24 -55 11z"/>
<path d="M7137 3900 c-47 -37 -31 -60 31 -44 25 7 28 22 9 48 -12 16 -14 16
-40 -4z"/>
<path d="M8564 3648 c-39 -40 -132 -140 -206 -223 -240 -266 -473 -483 -693
-645 -149 -109 -271 -168 -447 -215 -174 -46 -260 -56 -478 -55 -652 0 -1437
183 -1799 418 -73 48 -91 51 -91 20 0 -43 98 -122 232 -187 534 -259 1675
-412 2158 -290 189 48 461 223 780 503 185 163 493 492 558 597 30 50 73 149
64 149 -4 0 -39 -33 -78 -72z"/>
<path d="M8149 3504 c-7 -27 -13 -71 -13 -99 -1 -47 1 -50 24 -50 20 0 27 8
43 50 10 28 25 65 33 84 19 39 12 49 -39 58 l-36 5 -12 -48z"/>
<path d="M6943 3383 c-7 -2 -13 -15 -13 -27 0 -21 6 -24 68 -29 37 -4 91 -9
121 -13 81 -11 63 15 -35 48 -76 26 -115 32 -141 21z"/>
<path d="M9347 3178 c-15 -12 -37 -58 -37 -78 0 -4 13 -13 29 -18 24 -9 31 -6
54 18 l26 27 -22 31 c-25 36 -27 37 -50 20z"/>
<path d="M3280 3120 c-8 -5 -38 -14 -67 -20 -82 -17 -124 -60 -88 -90 32 -26
231 29 258 71 19 30 1 49 -45 49 -24 0 -50 -5 -58 -10z"/>
<path d="M6384 3085 c-4 -9 6 -34 22 -56 16 -23 43 -63 59 -89 l30 -47 33 15
c17 9 32 21 32 28 0 18 -74 108 -113 138 -39 30 -55 32 -63 11z"/>
<path d="M3521 3044 c-9 -33 -7 -122 5 -222 5 -37 8 -43 27 -40 15 2 23 13 29
38 13 59 12 197 -2 230 -18 42 -46 40 -59 -6z"/>
<path d="M8673 3038 c-15 -24 -38 -56 -50 -71 -27 -34 -24 -41 28 -67 l39 -20
20 32 c11 18 23 44 26 58 3 14 11 38 17 54 9 24 8 31 -8 42 -30 22 -43 17 -72
-28z"/>
<path d="M9064 2535 c-16 -25 -16 -26 19 -60 20 -19 40 -35 44 -35 4 0 18 15
30 32 25 36 20 48 -30 73 -40 20 -44 19 -63 -10z"/>
<path d="M7721 2521 c-11 -7 -11 -16 3 -57 17 -53 39 -271 31 -307 -7 -33 9
-91 26 -95 13 -2 17 12 22 80 10 119 8 203 -4 278 -15 93 -39 125 -78 101z"/>
</g>
</svg>
