<svg xmlns="http://www.w3.org/2000/svg" version="1.1" xmlns:xlink="http://www.w3.org/1999/xlink" xmlns:svgjs="http://svgjs.dev/svgjs" width="2000" height="702" viewBox="0 0 2000 702"><g transform="matrix(1,0,0,1,-1.2121212121212466,-0.236475092951423)"><svg viewBox="0 0 396 139" data-background-color="#ffffff" preserveAspectRatio="xMidYMid meet" height="702" width="2000" xmlns="http://www.w3.org/2000/svg" xmlns:xlink="http://www.w3.org/1999/xlink"><g id="tight-bounds" transform="matrix(1,0,0,1,0.2400000000000091,0.04682341584080518)"><svg viewBox="0 0 395.52 138.9063531683184" height="138.9063531683184" width="395.52"><g><svg viewBox="0 0 695.9904230589942 244.43135999999998" height="138.9063531683184" width="395.52"><g transform="matrix(1,0,0,1,0,3.527073239901071)"><svg viewBox="0 0 395.52 237.37721352019784" height="237.37721352019784" width="395.52"><g id="textblocktransform"><svg viewBox="0 0 395.52 237.37721352019784" height="237.37721352019784" width="395.52" id="textblock"><g><svg viewBox="0 0 395.52 237.37721352019784" height="237.37721352019784" width="395.52"><g transform="matrix(1,0,0,1,0,0)"><svg width="395.52" viewBox="1.88 -35.7 60.64 36.400000000000006" height="237.37721352019784" data-palette-color="#000000"><path d="M19.65 0.7L19.65 0.7Q14.45 0.7 10.44-1.55 6.43-3.8 4.15-7.89 1.88-11.98 1.88-17.5L1.88-17.5Q1.88-23.03 4.19-27.11 6.5-31.2 10.58-33.45 14.65-35.7 19.85-35.7L19.85-35.7Q22.55-35.7 24.93-35.13 27.3-34.55 29.08-33.65L29.08-33.65 28.48-28.53Q26.6-29.43 24.45-30.03 22.3-30.63 19.8-30.63L19.8-30.63Q15.85-30.63 13.2-28.89 10.55-27.15 9.19-24.19 7.83-21.23 7.83-17.5L7.83-17.5Q7.83-13.78 9.16-10.81 10.5-7.85 13.14-6.11 15.78-4.38 19.68-4.38L19.68-4.38Q22.25-4.38 24.36-4.94 26.48-5.5 28.48-6.45L28.48-6.45 29.08-1.33Q27.15-0.45 24.79 0.13 22.43 0.7 19.65 0.7ZM40.02 0L34.57 0 34.57-35 40.02-35 40.02-20.8 57.07-20.8 57.07-35 62.52-35 62.52 0 57.07 0 57.07-15.68 40.02-15.68 40.02 0Z" opacity="1" transform="matrix(1,0,0,1,0,0)" fill="#000000" class="wordmark-text-0" data-fill-palette-color="primary" id="text-0"></path></svg></g></svg></g></svg></g></svg></g><g transform="matrix(1,0,0,1,451.5590630589942,0)"><svg viewBox="0 0 244.43135999999998 244.43135999999998" height="244.43135999999998" width="244.43135999999998"><g data-palette-color="#000000"><rect width="66.8112384" height="244.43135999999998" fill="#000000" stroke="transparent" data-fill-palette-color="accent" x="0" fill-opacity="1"></rect><rect width="66.8112384" height="244.43135999999998" fill="#000000" stroke="transparent" data-fill-palette-color="accent" x="81.47711999999999" fill-opacity="0.75"></rect><rect width="66.8112384" height="244.43135999999998" fill="#000000" stroke="transparent" data-fill-palette-color="accent" x="162.95423999999997" fill-opacity="0.5"></rect></g></svg></g></svg></g><defs></defs></svg><rect width="395.52" height="138.9063531683184" fill="none" stroke="none" visibility="hidden"></rect></g></svg></g></svg>